Coordinates
version=1
nRows=65
nColumns=12
inDegrees=yes

Units are S.I. units (second, meters, Newtons, ...)
Angles are in degrees

endheader
time	SC_y	SC_z	SC_x	AC_y	AC_z	AC_x	GH_y	GH_z	GH_yy	EL_x	PS_y
       0.0              -32.45           26.6          14.98          37.69         -13.63          18.28         -8.467          14.33          67.45          34.26          59.04
   0.02715              -32.45           26.6          14.98          37.69         -13.63          18.28         -8.449          14.33          67.45          34.27          59.05
    0.0543              -32.45           26.6          14.98          37.69         -13.63          18.28          -8.43          14.34          67.44          34.27          59.06
   0.08144              -32.46          26.59          14.97          37.69         -13.62          18.28          -8.41          14.35          67.43          34.28          59.07
    0.1086              -32.46          26.59          14.97          37.69         -13.62          18.28         -8.388          14.36          67.42          34.28          59.09
    0.1357              -32.47          26.59          14.97          37.69         -13.62          18.28         -8.365          14.36          67.41          34.29           59.1
    0.1629              -32.47          26.59          14.97          37.69         -13.62          18.28         -8.341          14.37           67.4          34.29          59.12
      0.19              -32.48          26.59          14.97          37.69         -13.61          18.27         -8.314          14.38          67.39           34.3          59.13
    0.2172              -32.49          26.59          14.97          37.69         -13.61          18.27         -8.286          14.39          67.38          34.31          59.15
    0.2443              -32.49          26.58          14.97          37.69         -13.61          18.27         -8.256           14.4          67.37          34.31          59.17
    0.2715               -32.5          26.58          14.97          37.69         -13.61          18.27         -8.224          14.41          67.35          34.32          59.19
    0.2986              -32.51          26.58          14.96          37.69          -13.6          18.27         -8.189          14.42          67.34          34.33          59.21
    0.3258              -32.51          26.58          14.96          37.69          -13.6          18.26         -8.151          14.44          67.32          34.34          59.24
    0.3529              -32.52          26.58          14.96          37.69          -13.6          18.26          -8.11          14.45           67.3          34.35          59.26
    0.3801              -32.53          26.57          14.96          37.69         -13.59          18.26         -8.066          14.47          67.29          34.36          59.29
    0.4072              -32.54          26.57          14.96          37.69         -13.59          18.26         -8.019          14.48          67.27          34.37          59.32
    0.4344              -32.55          26.57          14.95          37.69         -13.58          18.25         -7.967           14.5          67.24          34.39          59.35
    0.4615              -32.57          26.56          14.95          37.69         -13.58          18.25          -7.91          14.52          67.22           34.4          59.39
    0.4887              -32.58          26.56          14.95          37.68         -13.57          18.25         -7.849          14.54          67.19          34.41          59.43
    0.5158              -32.59          26.56          14.95          37.68         -13.56          18.24         -7.781          14.57          67.17          34.43          59.47
     0.543              -32.61          26.55          14.94          37.68         -13.56          18.24         -7.707          14.59          67.13          34.45          59.52
    0.5701              -32.63          26.55          14.94          37.68         -13.55          18.23         -7.625          14.62           67.1          34.47          59.57
    0.5973              -32.65          26.54          14.93          37.68         -13.54          18.23         -7.535          14.65          67.06          34.49          59.63
    0.6244              -32.67          26.53          14.93          37.68         -13.53          18.22         -7.435          14.68          67.02          34.52          59.69
    0.6516              -32.69          26.53          14.93          37.68         -13.52          18.21         -7.324          14.72          66.97          34.54          59.76
    0.6787              -32.72          26.52          14.92          37.68         -13.51          18.21           -7.2          14.77          66.92          34.57          59.84
    0.7058              -32.75          26.51          14.91          37.67          -13.5           18.2         -7.061          14.81          66.86          34.61          59.93
     0.733              -32.78           26.5          14.91          37.67         -13.48          18.19         -6.905          14.87           66.8          34.65          60.02
    0.7601              -32.82          26.49           14.9          37.67         -13.47          18.18         -6.729          14.93          66.72          34.69          60.14
    0.7873              -32.86          26.48          14.89          37.67         -13.45          18.17         -6.528           15.0          66.64          34.74          60.26
    0.8144              -32.91          26.46          14.88          37.66         -13.43          18.15           -6.3          15.08          66.54          34.79          60.41
    0.8416              -32.97          26.45          14.87          37.66          -13.4          18.14         -6.037          15.17          66.43          34.86          60.57
    0.8687              -33.04          26.43          14.85          37.66         -13.37          18.12         -5.735          15.27          66.31          34.93          60.76
    0.8959              -33.11          26.41          14.84          37.65         -13.34           18.1         -5.382          15.39          66.16          35.02          60.99
     0.923               -33.2          26.38          14.82          37.65          -13.3          18.07         -4.971          15.54          65.98          35.12          61.25
    0.9502              -33.31          26.35           14.8          37.64         -13.26          18.04         -4.485           15.7          65.78          35.24          61.55
    0.9773              -33.43          26.32          14.77          37.63          -13.2          18.01         -3.908           15.9          65.54          35.38          61.92
     1.004              -33.58          26.27          14.74          37.62         -13.14          17.97         -3.216          16.14          65.25          35.55          62.35
     1.032              -33.76          26.22           14.7          37.61         -13.06          17.92          -2.38          16.43          64.89          35.76          62.88
     1.059              -33.98          26.16          14.65           37.6         -12.97          17.85         -1.357          16.78          64.46          36.01          63.53
     1.086              -34.25          26.08          14.59          37.58         -12.85          17.78       -0.09585          17.22          63.93          36.32          64.32
     1.113              -34.59          25.99          14.52          37.56          -12.7          17.68          1.477          17.76          63.27          36.71          65.32
      1.14              -35.02          25.86          14.43          37.54         -12.52          17.56          3.459          18.45          62.44          37.19          66.57
     1.167              -35.57          25.71          14.32           37.5         -12.28          17.41          5.978          19.32          61.38          37.81          68.16
     1.195              -36.26          25.51          14.17          37.46         -11.98          17.22          9.203          20.43          60.02          38.61           70.2
     1.222              -37.16          25.26          13.98          37.41          -11.6          16.97          13.34          21.86          58.28          39.62          72.81
     1.249               -38.3          24.93          13.74          37.34         -11.11          16.65          18.63          23.69          56.06          40.92          76.15
     1.276              -39.73          24.52          13.43          37.25         -10.49          16.25          25.27          25.99          53.27          42.56          80.34
     1.303              -41.48          24.03          13.06          37.15         -9.733          15.76          33.37          28.79          49.86          44.55          85.46
      1.33              -43.51          23.45          12.64          37.02         -8.858           15.2          42.76          32.03          45.91          46.85          91.39
     1.357              -45.71          22.83          12.17          36.89         -7.912          14.58          52.93          35.54          41.64          49.35          97.81
     1.385               -47.9           22.2          11.71          36.76         -6.965          13.97          63.09          39.05          37.37          51.85          104.2
     1.412              -49.93          21.63          11.28          36.63         -6.091           13.4          72.48           42.3          33.42          54.16          110.2
     1.439              -51.68          21.13          10.91          36.53         -5.337          12.92          80.58           45.1          30.01          56.15          115.3
     1.466              -53.12          20.72           10.6          36.44         -4.718          12.51          87.23          47.39          27.22          57.78          119.5
     1.493              -54.26          20.39          10.36          36.37         -4.226           12.2          92.51          49.22           25.0          59.08          122.8
      1.52              -55.15          20.14          10.17          36.32         -3.841          11.95          96.65          50.65          23.26           60.1          125.4
     1.547              -55.85          19.94          10.02          36.27         -3.541          11.75          99.87          51.76           21.9          60.89          127.5
     1.575              -56.39          19.79          9.908          36.24         -3.306           11.6          102.4          52.63          20.84          61.51          129.0
     1.602              -56.82          19.67          9.818          36.22         -3.121          11.48          104.4          53.32          20.01           62.0          130.3
     1.629              -57.16          19.57          9.746           36.2         -2.975          11.39          105.9          53.86          19.35          62.39          131.3
     1.656              -57.43          19.49          9.688          36.18         -2.857          11.31          107.2           54.3          18.81           62.7          132.1
     1.683              -57.66          19.43          9.641          36.17         -2.762          11.25          108.2          54.65          18.39          62.95          132.7
      1.71              -57.84          19.38          9.603          36.15         -2.684           11.2          109.1          54.94          18.03          63.15          133.3
     1.737              -57.99          19.34          9.571          36.15          -2.62          11.16          109.8          55.18          17.74          63.32          133.7
